<svg id="visual" viewBox="0 0 900 300" width="900" height="300" xmlns="http://www.w3.org/2000/svg" xmlns:xlink="http://www.w3.org/1999/xlink" version="1.1"><path d="M0 60L18.8 60.3C37.7 60.7 75.3 61.3 112.8 66.2C150.3 71 187.7 80 225.2 86.2C262.7 92.3 300.3 95.7 337.8 96C375.3 96.3 412.7 93.7 450.2 87.8C487.7 82 525.3 73 562.8 66C600.3 59 637.7 54 675.2 57.7C712.7 61.3 750.3 73.7 787.8 76.7C825.3 79.7 862.7 73.3 881.3 70.2L900 67L900 0L881.3 0C862.7 0 825.3 0 787.8 0C750.3 0 712.7 0 675.2 0C637.7 0 600.3 0 562.8 0C525.3 0 487.7 0 450.2 0C412.7 0 375.3 0 337.8 0C300.3 0 262.7 0 225.2 0C187.7 0 150.3 0 112.8 0C75.3 0 37.7 0 18.8 0L0 0Z" fill="#0fb78d"></path><path d="M0 56L18.8 54.3C37.7 52.7 75.3 49.3 112.8 45.7C150.3 42 187.7 38 225.2 42.2C262.7 46.3 300.3 58.7 337.8 65C375.3 71.3 412.7 71.7 450.2 69.2C487.7 66.7 525.3 61.3 562.8 56.7C600.3 52 637.7 48 675.2 47.7C712.7 47.3 750.3 50.7 787.8 50C825.3 49.3 862.7 44.7 881.3 42.3L900 40L900 0L881.3 0C862.7 0 825.3 0 787.8 0C750.3 0 712.7 0 675.2 0C637.7 0 600.3 0 562.8 0C525.3 0 487.7 0 450.2 0C412.7 0 375.3 0 337.8 0C300.3 0 262.7 0 225.2 0C187.7 0 150.3 0 112.8 0C75.3 0 37.7 0 18.8 0L0 0Z" fill="#7cd0b2"></path><path d="M0 53L18.8 48.5C37.7 44 75.3 35 112.8 35.2C150.3 35.3 187.7 44.7 225.2 47.5C262.7 50.3 300.3 46.7 337.8 45C375.3 43.3 412.7 43.7 450.2 42.8C487.7 42 525.3 40 562.8 36.3C600.3 32.7 637.7 27.3 675.2 28C712.7 28.7 750.3 35.3 787.8 36.8C825.3 38.3 862.7 34.7 881.3 32.8L900 31L900 0L881.3 0C862.7 0 825.3 0 787.8 0C750.3 0 712.7 0 675.2 0C637.7 0 600.3 0 562.8 0C525.3 0 487.7 0 450.2 0C412.7 0 375.3 0 337.8 0C300.3 0 262.7 0 225.2 0C187.7 0 150.3 0 112.8 0C75.3 0 37.7 0 18.8 0L0 0Z" fill="#c0e8d8"></path><path d="M0 26L18.8 24.7C37.7 23.3 75.3 20.7 112.8 19.7C150.3 18.7 187.7 19.3 225.2 18.2C262.7 17 300.3 14 337.8 14C375.3 14 412.7 17 450.2 20.8C487.7 24.7 525.3 29.3 562.8 28.7C600.3 28 637.7 22 675.2 21.2C712.7 20.3 750.3 24.7 787.8 25.5C825.3 26.3 862.7 23.7 881.3 22.3L900 21L900 0L881.3 0C862.7 0 825.3 0 787.8 0C750.3 0 712.7 0 675.2 0C637.7 0 600.3 0 562.8 0C525.3 0 487.7 0 450.2 0C412.7 0 375.3 0 337.8 0C300.3 0 262.7 0 225.2 0C187.7 0 150.3 0 112.8 0C75.3 0 37.7 0 18.8 0L0 0Z" fill="#ffffff"></path></svg>