<svg id="visual" viewBox="0 0 900 600" width="900" height="600" xmlns="http://www.w3.org/2000/svg" xmlns:xlink="http://www.w3.org/1999/xlink" version="1.1"><path d="M0 37L13.7 45C27.3 53 54.7 69 82 70C109.3 71 136.7 57 163.8 50C191 43 218 43 245.2 51C272.3 59 299.7 75 327 79C354.3 83 381.7 75 409 67C436.3 59 463.7 51 491 53C518.3 55 545.7 67 573 77C600.3 87 627.7 95 654.8 92C682 89 709 75 736.2 70C763.3 65 790.7 69 818 66C845.3 63 872.7 53 886.3 48L900 43L900 0L886.3 0C872.7 0 845.3 0 818 0C790.7 0 763.3 0 736.2 0C709 0 682 0 654.8 0C627.7 0 600.3 0 573 0C545.7 0 518.3 0 491 0C463.7 0 436.3 0 409 0C381.7 0 354.3 0 327 0C299.7 0 272.3 0 245.2 0C218 0 191 0 163.8 0C136.7 0 109.3 0 82 0C54.7 0 27.3 0 13.7 0L0 0Z" fill="#6198ff"></path><path d="M0 199L13.7 223C27.3 247 54.7 295 82 296C109.3 297 136.7 251 163.8 233C191 215 218 225 245.2 232C272.3 239 299.7 243 327 236C354.3 229 381.7 211 409 219C436.3 227 463.7 261 491 271C518.3 281 545.7 267 573 274C600.3 281 627.7 309 654.8 294C682 279 709 221 736.2 201C763.3 181 790.7 199 818 211C845.3 223 872.7 229 886.3 232L900 235L900 41L886.3 46C872.7 51 845.3 61 818 64C790.7 67 763.3 63 736.2 68C709 73 682 87 654.8 90C627.7 93 600.3 85 573 75C545.7 65 518.3 53 491 51C463.7 49 436.3 57 409 65C381.7 73 354.3 81 327 77C299.7 73 272.3 57 245.2 49C218 41 191 41 163.8 48C136.7 55 109.3 69 82 68C54.7 67 27.3 51 13.7 43L0 35Z" fill="#3c80ff"></path><path d="M0 391L13.7 407C27.3 423 54.7 455 82 457C109.3 459 136.7 431 163.8 409C191 387 218 371 245.2 371C272.3 371 299.7 387 327 407C354.3 427 381.7 451 409 455C436.3 459 463.7 443 491 421C518.3 399 545.7 371 573 375C600.3 379 627.7 415 654.8 433C682 451 709 451 736.2 452C763.3 453 790.7 455 818 450C845.3 445 872.7 433 886.3 427L900 421L900 233L886.3 230C872.7 227 845.3 221 818 209C790.7 197 763.3 179 736.2 199C709 219 682 277 654.8 292C627.7 307 600.3 279 573 272C545.7 265 518.3 279 491 269C463.7 259 436.3 225 409 217C381.7 209 354.3 227 327 234C299.7 241 272.3 237 245.2 230C218 223 191 213 163.8 231C136.7 249 109.3 295 82 294C54.7 293 27.3 245 13.7 221L0 197Z" fill="#0066ff"></path><path d="M0 529L13.7 532C27.3 535 54.7 541 82 539C109.3 537 136.7 527 163.8 514C191 501 218 485 245.2 490C272.3 495 299.7 521 327 535C354.3 549 381.7 551 409 550C436.3 549 463.7 545 491 534C518.3 523 545.7 505 573 503C600.3 501 627.7 515 654.8 520C682 525 709 521 736.2 523C763.3 525 790.7 533 818 528C845.3 523 872.7 505 886.3 496L900 487L900 419L886.3 425C872.7 431 845.3 443 818 448C790.7 453 763.3 451 736.2 450C709 449 682 449 654.8 431C627.7 413 600.3 377 573 373C545.7 369 518.3 397 491 419C463.7 441 436.3 457 409 453C381.7 449 354.3 425 327 405C299.7 385 272.3 369 245.2 369C218 369 191 385 163.8 407C136.7 429 109.3 457 82 455C54.7 453 27.3 421 13.7 405L0 389Z" fill="#0059dd"></path><path d="M0 601L13.7 601C27.3 601 54.7 601 82 601C109.3 601 136.7 601 163.8 601C191 601 218 601 245.2 601C272.3 601 299.7 601 327 601C354.3 601 381.7 601 409 601C436.3 601 463.7 601 491 601C518.3 601 545.7 601 573 601C600.3 601 627.7 601 654.8 601C682 601 709 601 736.2 601C763.3 601 790.7 601 818 601C845.3 601 872.7 601 886.3 601L900 601L900 485L886.3 494C872.7 503 845.3 521 818 526C790.7 531 763.3 523 736.2 521C709 519 682 523 654.8 518C627.7 513 600.3 499 573 501C545.7 503 518.3 521 491 532C463.7 543 436.3 547 409 548C381.7 549 354.3 547 327 533C299.7 519 272.3 493 245.2 488C218 483 191 499 163.8 512C136.7 525 109.3 535 82 537C54.7 539 27.3 533 13.7 530L0 527Z" fill="#004cbb"></path></svg>